<?xml version="1.0" encoding="UTF-8"?>
<!DOCTYPE svg PUBLIC "-//W3C//DTD SVG 1.1//EN" "http://www.w3.org/Graphics/SVG/1.1/DTD/svg11.dtd">
<svg xmlns="http://www.w3.org/2000/svg" version="1.1" width="512px" height="512px" style="shape-rendering:geometricPrecision; text-rendering:geometricPrecision; image-rendering:optimizeQuality; fill-rule:evenodd; clip-rule:evenodd" xmlns:xlink="http://www.w3.org/1999/xlink">
<g><path style="opacity:0.983" fill="#010200" d="M 511.5,138.5 C 511.5,148.167 511.5,157.833 511.5,167.5C 505.245,201.761 486.912,227.427 456.5,244.5C 456.167,245.167 455.833,245.833 455.5,246.5C 457.659,260.089 459.159,273.756 460,287.5C 462.594,291.099 465.594,294.433 469,297.5C 477.874,310.826 479.874,325.159 475,340.5C 470.254,351.244 462.754,359.411 452.5,365C 435.248,415.253 401.915,450.253 352.5,470C 296.967,488.788 240.634,491.455 183.5,478C 132.513,465.293 94.3462,436.127 69,390.5C 64.9423,381.661 61.2757,372.661 58,363.5C 35.6101,350.343 28.6101,331.343 37,306.5C 39,303.167 41,299.833 43,296.5C 46.0743,293.765 48.741,290.765 51,287.5C 51.841,273.756 53.341,260.089 55.5,246.5C 49.3523,241.87 43.019,237.37 36.5,233C 16.2169,215.595 3.88356,193.761 -0.5,167.5C -0.5,157.833 -0.5,148.167 -0.5,138.5C 10.9926,86.3482 43.3259,56.6816 96.5,49.5C 107.149,32.8376 122.482,24.5043 142.5,24.5C 160.433,24.9832 177.1,29.8165 192.5,39C 243.29,57.0911 292.623,53.7578 340.5,29C 357.551,23.2022 374.551,23.2022 391.5,29C 400.932,33.9367 408.599,40.7701 414.5,49.5C 467.675,56.6826 500.008,86.3493 511.5,138.5 Z"/></g>
<g><path style="opacity:1" fill="#a2c100" d="M 331.5,155.5 C 332.633,186.419 340.633,215.586 355.5,243C 361.453,244.491 367.453,245.657 373.5,246.5C 376.463,250.414 380.463,252.581 385.5,253C 395.752,254.87 406.085,255.703 416.5,255.5C 418.5,255.5 420.5,255.5 422.5,255.5C 423.346,262.14 424.013,268.807 424.5,275.5C 423.5,275.5 422.5,275.5 421.5,275.5C 398.152,271.42 374.818,271.587 351.5,276C 326.906,280.148 302.906,286.482 279.5,295C 271.41,296.699 263.243,297.865 255,298.5C 247.098,297.8 239.265,296.633 231.5,295C 214.354,289.396 197.02,284.396 179.5,280C 154.814,274.315 129.814,271.981 104.5,273C 92.7156,274.822 81.2156,277.655 70,281.5C 69.6705,271.465 70.1705,261.465 71.5,251.5C 92.5802,257.098 113.58,256.598 134.5,250C 143.269,236.956 149.769,222.79 154,207.5C 167.816,158.442 163.482,111.108 141,65.5C 139.291,62.5815 137.458,59.7482 135.5,57C 129.598,54.8576 123.598,53.0243 117.5,51.5C 127.54,42.3348 138.873,40.1681 151.5,45C 162.169,56.1648 169.336,69.3314 173,84.5C 175.31,93.7174 176.977,103.051 178,112.5C 176.057,145.838 180.724,178.171 192,209.5C 209.28,248.479 238.447,262.312 279.5,251C 298.119,242.38 311.286,228.547 319,209.5C 325.908,192.123 330.075,174.123 331.5,155.5 Z"/></g>
<g><path style="opacity:1" fill="#9ebd00" d="M 371.5,42.5 C 375.294,45.953 378.294,49.953 380.5,54.5C 377.385,54.9315 375.051,56.5982 373.5,59.5C 367.847,60.665 362.18,61.8316 356.5,63C 349.472,74.067 343.972,85.9003 340,98.5C 336.991,110.848 334.491,123.181 332.5,135.5C 330.965,106.667 337.131,79.6669 351,54.5C 354.167,50 358,46.1667 362.5,43C 365.482,42.502 368.482,42.3354 371.5,42.5 Z"/></g>
<g><path style="opacity:1" fill="#87a100" d="M 371.5,42.5 C 379.806,43.1566 387.139,46.1566 393.5,51.5C 389.27,52.9744 384.936,53.9744 380.5,54.5C 378.294,49.953 375.294,45.953 371.5,42.5 Z"/></g>
<g><path style="opacity:1" fill="#5fa816" d="M 310.5,60.5 C 311.239,60.369 311.906,60.5357 312.5,61C 306.118,74.4835 301.951,88.6502 300,103.5C 299.097,125.526 297.764,147.526 296,169.5C 293.37,187.724 287.37,204.724 278,220.5C 273.872,226.296 269.039,231.462 263.5,236C 258.292,237.397 252.959,237.897 247.5,237.5C 238.855,236.178 231.188,232.678 224.5,227C 215.867,218.242 209.367,208.075 205,196.5C 202.194,187.608 199.86,178.608 198,169.5C 196.386,145.158 194.719,120.825 193,96.5C 190.268,81.4709 185.435,67.1376 178.5,53.5C 179,53.1667 179.5,52.8333 180,52.5C 210.42,66.0584 242.253,70.8918 275.5,67C 287.384,65.7894 299.05,63.6227 310.5,60.5 Z"/></g>
<g><path style="opacity:1" fill="#539213" d="M 247.5,237.5 C 252.959,237.897 258.292,237.397 263.5,236C 269.039,231.462 273.872,226.296 278,220.5C 287.37,204.724 293.37,187.724 296,169.5C 297.764,147.526 299.097,125.526 300,103.5C 301.951,88.6502 306.118,74.4835 312.5,61C 311.906,60.5357 311.239,60.369 310.5,60.5C 317.262,57.9621 324.096,55.2955 331,52.5C 331.5,52.8333 332,53.1667 332.5,53.5C 324.839,68.6499 319.673,84.6499 317,101.5C 316.147,124.196 314.814,146.863 313,169.5C 310.541,186.884 304.541,202.884 295,217.5C 283.055,233.73 267.222,240.397 247.5,237.5 Z"/></g>
<g><path style="opacity:1" fill="#8eaa00" d="M 373.5,59.5 C 345.676,111.99 341.843,166.323 362,222.5C 365.365,230.78 369.198,238.78 373.5,246.5C 367.453,245.657 361.453,244.491 355.5,243C 340.633,215.586 332.633,186.419 331.5,155.5C 332.212,148.857 332.546,142.191 332.5,135.5C 334.491,123.181 336.991,110.848 340,98.5C 343.972,85.9003 349.472,74.067 356.5,63C 362.18,61.8316 367.847,60.665 373.5,59.5 Z"/></g>
<g><path style="opacity:1" fill="#f3f3f3" d="M 91.5,67.5 C 102.947,66.8278 114.114,68.1611 125,71.5C 147.259,116.758 150.593,163.425 135,211.5C 131.942,219.283 128.608,226.95 125,234.5C 82.9373,244.255 50.2707,230.922 27,194.5C 8.27326,153.681 15.1066,117.848 47.5,87C 60.667,76.9123 75.3337,70.4123 91.5,67.5 Z"/></g>
<g><path style="opacity:1" fill="#f3f3f3" d="M 430.5,70.5 C 469.898,96.6628 484.398,132.996 474,179.5C 466.536,204.131 451.703,222.797 429.5,235.5C 417.089,238.828 404.422,239.328 391.5,237C 389.324,236.837 387.491,236.004 386,234.5C 363.46,188.071 360.46,140.404 377,91.5C 379.451,84.5964 382.451,77.9297 386,71.5C 400.674,66.5626 415.507,66.2293 430.5,70.5 Z"/></g>
<g><path style="opacity:1" fill="#ccd5d9" d="M 430.5,70.5 C 465.904,81.4055 487.071,105.072 494,141.5C 497.147,181.382 481.314,210.882 446.5,230C 440.981,232.34 435.314,234.173 429.5,235.5C 451.703,222.797 466.536,204.131 474,179.5C 484.398,132.996 469.898,96.6628 430.5,70.5 Z"/></g>
<g><path style="opacity:1" fill="#030304" d="M 75.5,102.5 C 105.831,100.331 119.997,114.331 118,144.5C 110.692,164.461 96.5251,172.628 75.5,169C 57.3226,162.161 49.1559,148.995 51,129.5C 54.5114,116.16 62.6781,107.16 75.5,102.5 Z"/></g>
<g><path style="opacity:1" fill="#040404" d="M 418.5,102.5 C 445.659,100.831 459.492,113.498 460,140.5C 455.103,161.369 441.936,171.202 420.5,170C 399.154,163.826 389.988,149.659 393,127.5C 397.167,114.543 405.667,106.209 418.5,102.5 Z"/></g>
<g><path style="opacity:1" fill="#3d4fb1" d="M 78.5,119.5 C 94.8216,117.989 102.322,125.323 101,141.5C 93.0653,155.348 83.0653,157.015 71,146.5C 64.7643,134.994 67.2643,125.994 78.5,119.5 Z"/></g>
<g><path style="opacity:1" fill="#3d4fb1" d="M 419.5,119.5 C 435.242,117.248 443.075,123.915 443,139.5C 439.017,150.908 431.184,155.075 419.5,152C 409.264,145.846 406.764,137.346 412,126.5C 414.396,123.933 416.896,121.6 419.5,119.5 Z"/></g>
<g><path style="opacity:1" fill="#8ba600" d="M 421.5,275.5 C 422.5,275.5 423.5,275.5 424.5,275.5C 424.013,268.807 423.346,262.14 422.5,255.5C 420.5,255.5 418.5,255.5 416.5,255.5C 424.05,254.18 431.717,252.846 439.5,251.5C 440.579,261.136 441.246,270.802 441.5,280.5C 434.631,279.202 427.964,277.535 421.5,275.5 Z"/></g>
<g><path style="opacity:1" fill="#f9d600" d="M 427.5,294.5 C 431.446,298.62 435.279,302.953 439,307.5C 441.697,311.344 442.53,315.344 441.5,319.5C 440.251,317.864 438.584,316.697 436.5,316C 418.198,308.67 399.198,305.67 379.5,307C 365.752,308.342 352.085,310.342 338.5,313C 320.092,318.137 301.759,323.47 283.5,329C 273.857,330.414 264.191,331.58 254.5,332.5C 243.698,331.977 233.031,330.477 222.5,328C 202.472,321.243 182.139,315.576 161.5,311C 141.306,306.755 120.973,305.755 100.5,308C 89.6924,309.713 79.5257,313.213 70,318.5C 66.4558,325.829 68.4558,330.495 76,332.5C 86.548,328.652 97.3813,325.819 108.5,324C 122.226,323.304 135.892,323.971 149.5,326C 161.557,328.411 173.557,331.078 185.5,334C 207.67,342.807 230.67,347.973 254.5,349.5C 265.985,349.118 277.318,347.618 288.5,345C 305.892,340.203 323.225,335.203 340.5,330C 360.886,325.095 381.553,323.095 402.5,324C 413.335,326.209 424.001,329.042 434.5,332.5C 437.501,332.828 439.834,331.828 441.5,329.5C 441.345,337.166 438.345,343.833 432.5,349.5C 430.473,349.662 428.473,349.495 426.5,349C 409.871,341.881 392.538,339.547 374.5,342C 361.319,343.303 348.319,345.636 335.5,349C 312.554,357.653 288.887,363.32 264.5,366C 247.261,366.887 230.261,365.22 213.5,361C 191.617,353.279 169.283,347.279 146.5,343C 132.523,341.633 118.523,341.3 104.5,342C 96.9652,343.734 89.6319,346.067 82.5,349C 67.9489,351.476 57.7822,345.976 52,332.5C 48.737,319.619 52.5703,309.452 63.5,302C 85.3718,291.632 108.372,287.632 132.5,290C 152.144,291.539 171.477,294.872 190.5,300C 211.427,308.375 233.093,313.542 255.5,315.5C 266.627,314.469 277.627,312.636 288.5,310C 313.739,300.524 339.739,294.19 366.5,291C 387.105,288.118 407.438,289.284 427.5,294.5 Z"/></g>
<g><path style="opacity:1" fill="#f8bd07" d="M 427.5,294.5 C 435.54,296.79 443.207,299.957 450.5,304C 463.775,317.684 463.775,331.35 450.5,345C 445.036,348.655 439.036,350.155 432.5,349.5C 438.345,343.833 441.345,337.166 441.5,329.5C 444.059,326.094 444.059,322.76 441.5,319.5C 442.53,315.344 441.697,311.344 439,307.5C 435.279,302.953 431.446,298.62 427.5,294.5 Z"/></g>
<g><path style="opacity:1" fill="#060300" d="M 441.5,319.5 C 444.059,322.76 444.059,326.094 441.5,329.5C 439.834,331.828 437.501,332.828 434.5,332.5C 424.001,329.042 413.335,326.209 402.5,324C 381.553,323.095 360.886,325.095 340.5,330C 323.225,335.203 305.892,340.203 288.5,345C 277.318,347.618 265.985,349.118 254.5,349.5C 230.67,347.973 207.67,342.807 185.5,334C 173.557,331.078 161.557,328.411 149.5,326C 135.892,323.971 122.226,323.304 108.5,324C 97.3813,325.819 86.548,328.652 76,332.5C 68.4558,330.495 66.4558,325.829 70,318.5C 79.5257,313.213 89.6924,309.713 100.5,308C 120.973,305.755 141.306,306.755 161.5,311C 182.139,315.576 202.472,321.243 222.5,328C 233.031,330.477 243.698,331.977 254.5,332.5C 264.191,331.58 273.857,330.414 283.5,329C 301.759,323.47 320.092,318.137 338.5,313C 352.085,310.342 365.752,308.342 379.5,307C 399.198,305.67 418.198,308.67 436.5,316C 438.584,316.697 440.251,317.864 441.5,319.5 Z"/></g>
<g><path style="opacity:1" fill="#5fa816" d="M 201.5,375.5 C 200.028,384.443 195.528,391.443 188,396.5C 186.279,406.876 190.446,410.709 200.5,408C 210.409,401.024 216.409,391.524 218.5,379.5C 227.847,380.761 237.18,382.094 246.5,383.5C 246.333,401.17 246.5,418.836 247,436.5C 249.528,443.181 254.028,445.014 260.5,442C 262.041,440.421 263.208,438.587 264,436.5C 264.5,418.836 264.667,401.17 264.5,383.5C 273.701,382.192 283.034,380.859 292.5,379.5C 294.591,391.524 300.591,401.024 310.5,408C 315.62,410.506 319.786,409.339 323,404.5C 323.667,401.833 323.667,399.167 323,396.5C 315.455,391.455 310.955,384.455 309.5,375.5C 337.955,363.867 367.622,358.033 398.5,358C 405.182,358.767 411.516,360.6 417.5,363.5C 407.463,393.402 390.129,418.236 365.5,438C 354.772,445.359 343.772,452.193 332.5,458.5C 292.702,468.831 252.368,471.331 211.5,466C 177.129,461.334 146.462,448.334 119.5,427C 100.398,410.419 86.7313,390.252 78.5,366.5C 81.8738,366.326 85.2072,365.826 88.5,365C 101.193,358.928 114.526,356.594 128.5,358C 139.627,358.923 150.627,360.589 161.5,363C 174.963,366.877 188.296,371.044 201.5,375.5 Z"/></g>
<g><path style="opacity:1" fill="#529113" d="M 417.5,363.5 C 422.193,365.88 427.193,366.88 432.5,366.5C 417.743,405.762 391.076,433.928 352.5,451C 345.926,453.802 339.259,456.302 332.5,458.5C 343.772,452.193 354.772,445.359 365.5,438C 390.129,418.236 407.463,393.402 417.5,363.5 Z"/></g>
<g><path style="opacity:1" fill="#038900" d="M 201.5,375.5 C 207.386,376.39 213.053,377.723 218.5,379.5C 216.409,391.524 210.409,401.024 200.5,408C 190.446,410.709 186.279,406.876 188,396.5C 195.528,391.443 200.028,384.443 201.5,375.5 Z"/></g>
<g><path style="opacity:1" fill="#028900" d="M 309.5,375.5 C 310.955,384.455 315.455,391.455 323,396.5C 323.667,399.167 323.667,401.833 323,404.5C 319.786,409.339 315.62,410.506 310.5,408C 300.591,401.024 294.591,391.524 292.5,379.5C 297.936,377.676 303.603,376.342 309.5,375.5 Z"/></g>
<g><path style="opacity:1" fill="#078b01" d="M 246.5,383.5 C 252.5,383.5 258.5,383.5 264.5,383.5C 264.667,401.17 264.5,418.836 264,436.5C 263.208,438.587 262.041,440.421 260.5,442C 254.028,445.014 249.528,443.181 247,436.5C 246.5,418.836 246.333,401.17 246.5,383.5 Z"/></g>
</svg>
